<?xml version="1.0" standalone="no"?>
<!DOCTYPE svg PUBLIC "-//W3C//DTD SVG 20010904//EN"
 "http://www.w3.org/TR/2001/REC-SVG-20010904/DTD/svg10.dtd">
<svg version="1.0" xmlns="http://www.w3.org/2000/svg"
 width="500.000000pt" height="500.000000pt" viewBox="0 0 500.000000 500.000000"
 preserveAspectRatio="xMidYMid meet">

<g transform="translate(0.000000,500.000000) scale(0.100000,-0.100000)"
fill="#FFFFFF" stroke="none"> <!-- Changed to white -->
<path d="M0 2500 l0 -2500 2500 0 2500 0 0 2500 0 2500 -2500 0 -2500 0 0
-2500z m2726 1445 c197 -34 413 -123 574 -236 104 -72 274 -247 342 -349 106
-162 178 -335 215 -519 22 -108 24 -416 5 -506 -63 -287 -186 -523 -376 -719
l-64 -67 60 -41 c126 -85 279 -142 414 -155 70 -6 88 -27 32 -36 -204 -35
-404 6 -593 123 l-31 19 -44 -30 c-131 -89 -336 -172 -507 -206 -123 -24 -396
-24 -513 1 -285 59 -519 184 -720 386 -119 120 -191 218 -260 358 -97 197
-140 386 -140 617 0 287 73 529 231 770 69 104 270 305 374 374 165 109 345
180 540 215 109 19 350 20 461 1z"/>
<path d="M2295 3866 c-140 -23 -236 -55 -370 -121 -156 -77 -241 -139 -357
-257 -108 -112 -174 -206 -244 -352 -79 -165 -115 -309 -121 -496 -11 -291 58
-541 213 -776 73 -111 253 -293 352 -358 434 -282 944 -299 1387 -45 41 23 75
45 75 48 -1 3 -26 26 -57 51 -60 48 -900 938 -902 955 0 6 124 167 277 358
281 352 302 386 272 422 -7 8 -27 17 -46 21 -86 16 -15 24 211 24 233 0 309
-10 192 -24 -77 -10 -145 -46 -204 -107 -79 -83 -543 -620 -543 -630 0 -10
862 -927 899 -956 l29 -23 66 71 c181 191 290 393 347 644 29 130 32 373 6
507 -79 398 -327 730 -686 916 -110 57 -183 83 -313 113 -117 27 -364 35 -483
15z m75 -535 c0 -5 -21 -12 -46 -16 -34 -5 -57 -17 -88 -45 l-41 -39 0 -711 0
-711 41 -39 c31 -28 54 -40 88 -45 106 -16 31 -25 -208 -25 -238 0 -320 9
-225 24 60 10 94 30 121 73 l23 38 0 685 c0 641 -1 687 -18 718 -22 41 -68 69
-124 78 -24 3 -40 10 -37 15 7 12 514 12 514 0z"/>
</g>
</svg>
